Coordinates
version=1
nRows=29
nColumns=24
inDegrees=yes

Units are S.I. units (second, meters, Newtons, ...)
Angles are in degrees.

endheader
time	pelvis_tilt	pelvis_list	pelvis_rotation	pelvis_tx	pelvis_ty	pelvis_tz	hip_flexion_r	hip_adduction_r	hip_rotation_r	knee_angle_r	ankle_angle_r	subtalar_angle_r	mtp_angle_r	hip_flexion_l	hip_adduction_l	hip_rotation_l	knee_angle_l	ankle_angle_l	subtalar_angle_l	mtp_angle_l	lumbar_extension	lumbar_bending	lumbar_rotation
      3.06500000	     -9.33831038	      5.90768687	    356.75424948	      0.61279543	      1.37130698	     -1.03506537	      6.47451222	     -4.50962551	      6.39226214	    -37.24664786	     -1.32710861	     -1.47841280	     24.51411982	     25.89146904	      7.98103595	     -1.51177650	     -8.22739263	    -12.33851229	     -7.16861692	     29.38360650	     -6.46527509	     -2.65693180	     12.65152806
      3.07000000	     -9.25103850	      6.02567136	    356.78275213	      0.61810665	      1.37184497	     -1.03599978	      7.16781011	     -4.74992356	      6.20950096	    -38.83512700	     -2.30147710	     -1.12150650	     25.37235829	     25.72591852	      8.20720010	     -1.41166521	     -8.69773335	    -11.96378672	     -7.12924006	     28.85234999	     -6.51580476	     -2.79652268	     12.56294829
      3.07500000	     -9.13559370	      6.12999424	    356.79904046	      0.62337695	      1.37240922	     -1.03690516	      7.83515015	     -4.96650773	      6.08275321	    -40.37480561	     -3.23419617	     -0.83290238	     26.18041581	     25.50948252	      8.41730768	     -1.36537523	     -9.12832759	    -11.57050935	     -7.03397486	     28.25014577	     -6.60175567	     -2.91150941	     12.45577188
      3.08000000	     -8.99591566	      6.20018424	    356.81804777	      0.62860276	      1.37299281	     -1.03780420	      8.46902973	     -5.13695312	      5.99188094	    -41.85152439	     -4.10066586	     -0.61579162	     26.89042527	     25.24989257	      8.59690992	     -1.34304683	     -9.53079404	    -11.13823722	     -6.87711603	     27.61247451	     -6.71879426	     -2.98922426	     12.34539342
      3.08500000	     -8.88892164	      6.28219164	    356.85244694	      0.63383778	      1.37350698	     -1.03871303	      9.13713326	     -5.32277006	      5.90520689	    -43.29430300	     -4.73237461	     -0.23087339	     27.38982903	     25.00703019	      8.78982613	     -1.35152158	     -9.88952090	    -10.72954588	     -6.67732348	     27.16356128	     -6.77734438	     -3.08765584	     12.24734063
      3.09000000	     -8.80388259	      6.33362064	    356.87760996	      0.63902969	      1.37400744	     -1.03957650	      9.82347851	     -5.45332351	      5.87287386	    -44.67241893	     -5.27195593	      0.05625841	     27.84919720	     24.77779113	      8.94095058	     -1.41862530	    -10.23146581	    -10.28529098	     -6.39482884	     26.62812026	     -6.81407691	     -3.14708072	     12.12148582
      3.09500000	     -8.70204420	      6.36529542	    356.89924744	      0.64418624	      1.37451785	     -1.04041728	     10.47830859	     -5.55253568	      5.86892160	    -45.97865037	     -5.65158538	      0.36300178	     28.22953270	     24.51635445	      9.06836557	     -1.52645684	    -10.54671673	     -9.82660690	     -6.05329181	     26.12573169	     -6.86786998	     -3.18713625	     12.00143518
      3.10000000	     -8.61878881	      6.36139935	    356.92161252	      0.64928762	      1.37500518	     -1.04124198	     11.14198340	     -5.59761556	      5.89022318	    -47.21651989	     -5.89229686	      0.64648280	     28.55564878	     24.27559528	      9.15262308	     -1.67430346	    -10.86474372	     -9.32852945	     -5.62769310	     25.62084801	     -6.90072987	     -3.18753713	     11.88827863
      3.10500000	     -8.52336580	      6.32304208	    356.92886850	      0.65432559	      1.37551489	     -1.04201870	     11.77987243	     -5.58716667	      5.94387109	    -48.37662073	     -5.99235411	      0.89170046	     28.83633917	     24.02177009	      9.18914692	     -1.88981140	    -11.18575501	     -8.79469035	     -5.12582090	     25.06922334	     -6.95443922	     -3.15012025	     11.77999255
      3.11000000	     -8.47382473	      6.28097129	    356.95024379	      0.65935666	      1.37596343	     -1.04277643	     12.45696346	     -5.56585888	      5.99409667	    -49.47680370	     -5.96097359	      1.18667914	     29.07094157	     23.81708779	      9.21471520	     -2.13073948	    -11.50022445	     -8.28149046	     -4.56349935	     24.70351751	     -6.94457938	     -3.11397381	     11.64994557
      3.11500000	     -8.44084957	      6.19742884	    356.93683053	      0.66429564	      1.37641891	     -1.04345333	     13.14911760	     -5.46779615	      6.09749884	    -50.50397644	     -5.85578511	      1.36255071	     29.27500162	     23.64684725	      9.17312740	     -2.45323151	    -11.85604653	     -7.67430381	     -3.88587954	     24.01182097	     -6.92898871	     -3.02485998	     11.54104536
      3.12000000	     -8.40919256	      6.09925030	    356.94951742	      0.66920478	      1.37684835	     -1.04412475	     13.82266454	     -5.35832427	      6.16542810	    -51.45996660	     -5.57525669	      1.62138779	     29.47480116	     23.48439028	      9.11677862	     -2.77075896	    -12.21560183	     -7.10637837	     -3.19184811	     23.75055807	     -6.90847403	     -2.93527718	     11.42078197
      3.12500000	     -8.42252807	      5.95133074	    356.92856022	      0.67401470	      1.37725112	     -1.04472543	     14.54609365	     -5.16345907	      6.27258979	    -52.34719391	     -5.28267004	      1.75607933	     29.63235560	     23.40160246	      8.98072769	     -3.17837821	    -12.64607781	     -6.43987513	     -2.36111934	     23.10898842	     -6.84773028	     -2.78256142	     11.34338248
      3.13000000	     -8.45074488	      5.81260863	    356.90582534	      0.67878408	      1.37762242	     -1.04525740	     15.28228678	     -4.96949717	      6.37949251	    -53.17718204	     -4.89427336	      1.89960219	     29.78527934	     23.34242645	      8.84200453	     -3.57799100	    -13.08701572	     -5.77327334	     -1.51547900	     22.56572002	     -6.77284947	     -2.65201071	     11.23761715
      3.13500000	     -8.50274837	      5.67261879	    356.87357073	      0.68350312	      1.37795370	     -1.04576157	     16.04415135	     -4.77147144	      6.46999680	    -53.94889615	     -4.44609849	      2.01067516	     29.91102629	     23.33007959	      8.68979324	     -4.02217412	    -13.57202440	     -5.06866022	     -0.65316031	     21.86185154	     -6.67460176	     -2.50760776	     11.11227726
      3.14000000	     -8.56865275	      5.48749748	    356.84015629	      0.68814613	      1.37827356	     -1.04621504	     16.80800087	     -4.51276904	      6.54805438	    -54.64229631	     -3.97324249	      2.07142924	     30.00975310	     23.34814643	      8.47792046	     -4.44804662	    -14.08696893	     -4.36061472	      0.23467935	     21.33408459	     -6.56498658	     -2.33129220	     11.04492209
      3.14500000	     -8.67973660	      5.31384006	    356.79847687	      0.69274479	      1.37854417	     -1.04660504	     17.62252024	     -4.25655439	      6.62477062	    -55.28132754	     -3.44871596	      2.12672492	     30.09813884	     23.42508534	      8.26475138	     -4.85756001	    -14.62227355	     -3.64214044	      1.11086527	     20.67448055	     -6.41125887	     -2.16619917	     10.94672086
      3.15000000	     -8.80557742	      5.13803915	    356.75136506	      0.69729435	      1.37878118	     -1.04696777	     18.45078251	     -3.99959087	      6.67464686	    -55.85906079	     -2.90132260	      2.15132802	     30.15441569	     23.52378363	      8.04299029	     -5.24614228	    -15.16805435	     -2.92443280	      1.94895845	     19.98481373	     -6.24122308	     -1.99741795	     10.86009222
      3.15500000	     -8.91923196	      4.97685221	    356.69533010	      0.70182003	      1.37904006	     -1.04726962	     19.25648426	     -3.75862676	      6.71137619	    -56.36439198	     -2.30822066	      2.19164297	     30.18311628	     23.59620982	      7.83287312	     -5.60393021	    -15.68890962	     -2.23263519	      2.73397119	     19.17463614	     -6.09185823	     -1.84288993	     10.72689393
      3.16000000	     -9.07874877	      4.80165290	    356.63541240	      0.70627319	      1.37924106	     -1.04754347	     20.11307254	     -3.49643785	      6.72781050	    -56.81047960	     -1.76691473	      2.15497217	     30.18023397	     23.71945206	      7.60387183	     -5.89233404	    -16.20368005	     -1.56959907	      3.41150945	     18.52699636	     -5.89364662	     -1.68606805	     10.66124094
      3.16500000	     -9.19706129	      4.64490075	    356.57731835	      0.71073611	      1.37950700	     -1.04780335	     20.90482924	     -3.26872914	      6.71425360	    -57.17182645	     -1.17283891	      2.17659321	     30.15885519	     23.76408104	      7.40663449	     -6.11377840	    -16.65396190	     -0.95485459	      4.01088551	     17.75802789	     -5.74098243	     -1.54125838	     10.54686303
      3.17000000	     -9.34856444	      4.49759591	    356.51349119	      0.71515617	      1.37973796	     -1.04803644	     21.73306278	     -3.04863661	      6.68453720	    -57.47392543	     -0.63465055	      2.13116099	     30.10614997	     23.82581061	      7.22248555	     -6.26220149	    -17.05527031	     -0.40454744	      4.44076892	     17.13235247	     -5.55348407	     -1.41542804	     10.47031891
      3.17500000	     -9.40845471	      4.36166821	    356.44962366	      0.71960610	      1.38011514	     -1.04825909	     22.43043938	     -2.85761484	      6.63760617	    -57.67286467	     -0.06887920	      2.18845214	     30.12409339	     23.72680445	      7.06859467	     -6.33574921	    -17.32399668	     -0.00692271	      4.75668296	     16.87147903	     -5.47133629	     -1.29042566	     10.32573587
      3.18000000	     -9.55983402	      4.24974229	    356.41289639	      0.72403913	      1.38039548	     -1.04854378	     23.22711211	     -2.70380067	      6.54118915	    -57.82825077	      0.46608519	      2.13607646	     29.96421406	     23.71667042	      6.96397848	     -6.29693859	    -17.57634982	      0.40638109	      4.91611550	     16.07656554	     -5.27036883	     -1.20046091	     10.25043217
      3.18500000	     -9.56277329	      4.13406091	    356.36993824	      0.72850887	      1.38088881	     -1.04885272	     23.82282948	     -2.56575718	      6.43945182	    -57.86637039	      0.97956525	      2.17464812	     29.86674428	     23.46877799	      6.88844547	     -6.14177395	    -17.67294565	      0.71682262	      4.88157064	     15.57666630	     -5.24347398	     -1.10233325	     10.14316454
      3.19000000	     -9.57000508	      4.05469824	    356.32636478	      0.73308418	      1.38143765	     -1.04916165	     24.39941890	     -2.47017967	      6.32762847	    -57.82302658	      1.44387640	      2.10853843	     29.71323687	     23.16357840	      6.86307025	     -5.95545011	    -17.64583671	      0.91531305	      4.71604593	     15.11344837	     -5.18042691	     -1.04477338	     10.06274187
      3.19500000	     -9.50665848	      3.96815862	    356.29818112	      0.73764534	      1.38208186	     -1.04949747	     24.87350553	     -2.38037864	      6.20077164	    -57.69598282	      1.89521972	      2.09540047	     29.61663166	     22.74100406	      6.85332925	     -5.68269121	    -17.53242464	      1.03508305	      4.48078104	     14.83139163	     -5.20559648	     -0.98610392	      9.98068006
      3.20000000	     -9.43222473	      3.88982469	    356.28229442	      0.74224858	      1.38276125	     -1.04986282	     25.30874349	     -2.30194595	      6.07272097	    -57.48871771	      2.32817391	      2.05493322	     29.49370512	     22.26539762	      6.87058417	     -5.33582292	    -17.33810973	      1.08696022	      4.13189441	     14.56417251	     -5.24058390	     -0.93539700	      9.89519942
      3.20500000	     -9.30298106	      3.81342708	    356.29216336	      0.74700260	      1.38355279	     -1.05033122	     25.63800639	     -2.25961245	      5.89849268	    -57.18267874	      2.71966055	      2.07556316	     29.29089119	     21.66620833	      6.92153675	     -4.93474588	    -17.03278752	      1.08576493	      3.64968882	     14.26160933	     -5.30523987	     -0.86534195	      9.77109762
